<svg width="36" height="23" viewBox="0 0 36 23" fill="none" xmlns="http://www.w3.org/2000/svg"><path d="M2.63777 0.0364244C2.36828 0.0346211 2.10092 0.0842696 1.85004 0.182705L6.80994 5.28798L11.8244 10.4841L11.9152 10.5941L12.0615 10.7403L12.2078 10.8875L12.5003 11.1983L16.8043 15.6076C16.9447 15.7227 17.0921 15.8289 17.2458 15.9256C17.4514 16.0418 17.6793 16.113 17.9145 16.1345C18.17 16.1371 18.4222 16.0776 18.6496 15.961C18.8195 15.8783 18.8949 15.7602 19.0911 15.6085L24.0683 10.4669L29.1 5.28798L33.9491 0.290825C33.6324 0.122299 33.2783 0.0366559 32.9196 0.0418756H2.63777V0.0364244ZM1.11864 0.657889C0.840208 0.932097 0.620376 1.26 0.472473 1.62172C0.32457 1.98343 0.251678 2.37142 0.258217 2.76215V19.5226C0.252224 20.1684 0.458074 20.7984 0.844247 21.3161L1.54021 20.6574L6.71909 15.6248L11.3119 11.1783L11.2211 11.0692L6.18939 5.89037L1.15771 0.693323L1.11864 0.657889ZM34.6032 0.82325L29.6969 5.89128L24.6825 11.0701L24.5916 11.161L29.3671 15.7902L34.546 20.8219L34.8567 21.1144C35.149 20.6353 35.3013 20.0839 35.2965 19.5226V2.76215C35.3067 2.05341 35.0605 1.36486 34.6032 0.82325V0.82325ZM11.898 11.7825L7.32329 16.229L2.12715 21.2616L1.46844 21.9022C1.81539 22.1342 2.22225 22.2604 2.63959 22.2656H32.9196C33.4222 22.2593 33.9072 22.0795 34.2925 21.7568L33.9636 21.427L28.7665 16.3962L23.9911 11.7834L19.6917 16.2145C19.4591 16.369 19.3028 16.5407 19.0757 16.6452C18.7123 16.8142 18.3098 16.9577 17.9064 16.9513C17.503 16.945 17.1059 16.7869 16.7443 16.6088C16.5648 16.5121 16.3989 16.392 16.2509 16.2517L11.898 11.7825Z" fill="white"></path></svg>