<svg width="32" height="32" viewBox="0 0 32 32" fill="none" xmlns="http://www.w3.org/2000/svg"><path d="M1.25438 10.8922H7.58164V31.2174H1.25438V10.8922ZM4.42096 0.793576C5.14564 0.794166 5.85391 1.00964 6.45614 1.41275C7.05836 1.81585 7.52751 2.3885 7.80429 3.05825C8.08107 3.728 8.15305 4.46478 8.01109 5.17543C7.86914 5.88608 7.51964 6.53867 7.00679 7.05069C6.49395 7.5627 5.84079 7.91113 5.12991 8.05193C4.41903 8.19273 3.68235 8.11958 3.01305 7.84171C2.34375 7.56384 1.77189 7.09375 1.36977 6.49086C0.967642 5.88798 0.753319 5.17939 0.753907 4.4547C0.753907 3.97341 0.848786 3.49686 1.03315 3.05229C1.21751 2.60771 1.48772 2.20385 1.82832 1.8638C2.16891 1.52376 2.57323 1.2542 3.01811 1.07056C3.46298 0.886923 3.93967 0.792793 4.42096 0.793576Z" fill="white"></path><path d="M11.5469 10.8922H17.606V13.6745H17.6894C18.5355 12.0748 20.5939 10.3977 23.6712 10.3977C30.0669 10.3977 31.2466 14.604 31.2466 20.0763V31.2234H24.9342V21.3185C24.9342 18.9592 24.8895 15.9296 21.6574 15.9296C18.3806 15.9296 17.8682 18.4975 17.8682 21.1457V31.1996H11.5528L11.5469 10.8922Z" fill="white"></path></svg>